<?xml version="1.0" standalone="no"?>
<!DOCTYPE svg PUBLIC "-//W3C//DTD SVG 20010904//EN"
 "http://www.w3.org/TR/2001/REC-SVG-20010904/DTD/svg10.dtd">
<svg version="1.0" xmlns="http://www.w3.org/2000/svg"
 width="2000.000000pt" height="1500.000000pt" viewBox="0 0 2000.000000 1500.000000"
 preserveAspectRatio="xMidYMid meet">

<g transform="translate(0.000000,1500.000000) scale(0.100000,-0.100000)"
fill="#000000" stroke="none">
<path d="M9595 12479 c-987 -80 -1938 -455 -2705 -1067 -326 -260 -648 -592
-897 -924 -483 -643 -809 -1418 -932 -2213 -45 -292 -55 -427 -55 -775 0 -348
10 -483 55 -775 137 -891 516 -1724 1108 -2435 123 -149 393 -424 546 -556
474 -410 996 -718 1579 -931 355 -129 748 -220 1156 -269 183 -21 708 -30 910
-15 923 70 1792 383 2534 913 493 353 925 801 1265 1310 969 1454 1099 3346
337 4923 -183 379 -397 710 -674 1045 -127 154 -487 511 -642 638 -814 666
-1765 1050 -2804 1132 -148 12 -633 11 -781 -1z m910 -143 c690 -77 1314 -278
1897 -612 1159 -663 1996 -1771 2313 -3058 221 -897 182 -1838 -111 -2712
-463 -1385 -1537 -2495 -2908 -3009 -375 -140 -775 -235 -1196 -282 -220 -25
-791 -25 -1009 0 -756 86 -1438 320 -2059 706 -1083 673 -1865 1753 -2162
2986 -269 1115 -138 2285 370 3303 242 486 512 864 888 1246 385 392 806 700
1285 940 589 296 1165 453 1872 510 119 9 686 -3 820 -18z"/>
<path d="M9595 12279 c-893 -77 -1742 -397 -2450 -923 -365 -272 -724 -629
-991 -986 -242 -324 -468 -727 -615 -1097 -502 -1272 -444 -2689 162 -3902
248 -498 517 -870 914 -1266 779 -777 1727 -1233 2855 -1372 116 -14 221 -18
525 -18 398 0 500 7 790 56 1761 295 3211 1542 3768 3240 484 1474 213 3117
-717 4359 -197 263 -517 602 -756 801 -784 652 -1690 1023 -2705 1109 -142 12
-637 11 -780 -1z m590 -3153 c121 -36 423 -157 680 -273 178 -80 233 -100 360
-130 279 -66 472 -141 562 -218 77 -66 119 -199 130 -410 l6 -124 -29 -7 c-16
-4 -85 -8 -154 -8 l-125 -1 -8 85 c-4 47 -14 106 -23 133 -22 68 -100 149
-181 189 -60 29 -75 32 -157 32 -79 1 -99 -3 -153 -28 -72 -33 -135 -95 -166
-164 -16 -35 -22 -73 -25 -149 l-4 -103 -938 0 -937 0 -6 86 c-11 151 -80 260
-205 321 -50 24 -69 28 -147 28 -76 0 -99 -4 -146 -26 -79 -37 -133 -90 -171
-166 -27 -55 -33 -80 -36 -154 l-4 -89 -109 0 c-59 0 -110 4 -113 9 -3 4 -8
68 -12 142 -6 125 -4 148 30 340 20 113 36 209 36 213 0 4 201 107 448 228
330 162 464 223 512 233 56 12 131 20 370 39 25 2 176 3 335 1 283 -2 292 -3
380 -29z m-1386 -826 c217 -110 211 -417 -9 -531 -64 -33 -185 -34 -251 -1
-62 30 -117 86 -146 150 -21 46 -24 64 -21 130 4 86 21 128 74 190 80 94 237
122 353 62z m2588 1 c22 -11 61 -43 87 -72 163 -181 42 -469 -204 -486 -261
-19 -413 293 -240 490 87 99 240 128 357 68z m-377 -1395 c0 -418 2 -476 16
-490 8 -9 24 -16 35 -16 23 0 23 -19 6 -190 l-12 -115 -135 0 c-128 0 -138 2
-192 28 -32 16 -67 42 -79 58 -47 67 -49 88 -49 661 l0 538 205 0 205 0 0
-474z m-3315 420 c49 -15 91 -29 93 -30 3 -4 -59 -348 -64 -354 -1 -2 -48 8
-105 22 -197 50 -254 31 -285 -94 -22 -86 -15 -294 11 -358 36 -87 87 -99 276
-62 57 11 104 19 105 17 1 -1 14 -63 29 -137 14 -74 29 -145 32 -157 4 -19 -2
-24 -49 -37 -91 -26 -227 -46 -317 -46 -334 1 -505 170 -529 523 -29 422 98
669 379 732 104 24 311 14 424 -19z m2536 0 c206 -44 293 -166 293 -411 0
-144 -26 -236 -87 -302 -72 -79 -157 -109 -329 -120 l-108 -6 0 -189 0 -188
-210 0 -210 0 0 615 0 615 293 0 c212 0 310 -4 358 -14z m-1833 -246 c144 -16
220 -66 253 -165 9 -29 13 -110 14 -290 l0 -250 43 -3 c23 -2 42 -6 42 -10 -2
-36 -38 -254 -44 -259 -4 -5 -65 -8 -134 -8 -111 0 -132 3 -168 22 -22 12 -46
28 -52 36 -11 13 -22 10 -81 -20 -127 -65 -297 -56 -387 21 -97 83 -122 281
-51 388 50 74 182 129 348 146 74 7 74 7 74 37 l0 30 -80 -2 c-44 -2 -127 -14
-185 -27 -58 -13 -108 -21 -111 -18 -10 11 -64 301 -57 307 12 12 245 55 344
63 140 13 140 13 232 2z m3412 -11 c70 -15 126 -54 157 -107 l28 -47 0 -260
c0 -143 4 -266 8 -272 5 -7 23 -13 41 -13 18 0 35 -2 38 -5 6 -6 -30 -256 -38
-264 -3 -3 -63 -6 -132 -6 -134 0 -165 8 -219 57 l-22 20 -31 -22 c-46 -33
-143 -60 -214 -60 -195 0 -307 119 -294 314 10 144 81 218 251 260 38 10 100
20 138 23 38 3 72 10 75 15 3 5 3 21 -1 35 -6 26 -6 26 -83 19 -42 -3 -126
-17 -186 -31 -60 -14 -111 -24 -112 -22 -4 4 -62 312 -60 315 8 7 265 53 347
61 101 10 236 5 309 -10z m-2330 -37 c0 -27 -3 -104 -7 -170 l-6 -122 -94 0
c-86 0 -96 -2 -118 -25 l-25 -24 0 -291 0 -290 -207 2 -208 3 -3 473 -2 472
182 -2 183 -3 3 -27 c3 -29 16 -36 28 -17 12 20 98 52 159 59 121 14 115 16
115 -38z m3076 -227 c26 -162 43 -241 47 -225 7 26 87 463 87 474 0 3 92 6
205 6 136 0 205 -4 205 -10 0 -6 -65 -238 -145 -517 -102 -355 -153 -519 -173
-552 -69 -112 -155 -141 -426 -141 -174 0 -176 0 -181 23 -7 32 -33 196 -37
232 l-3 30 100 5 c95 5 100 6 103 28 3 18 -249 867 -265 895 -2 4 96 6 219 5
l223 -3 41 -250z"/>
<path d="M9440 9009 c-130 -15 -172 -32 -228 -93 -67 -74 -148 -210 -127 -214
8 -2 162 -13 341 -26 l327 -22 -7 90 c-3 49 -6 131 -6 183 l0 93 -112 -1 c-62
-1 -147 -5 -188 -10z"/>
<path d="M9860 8973 c1 -69 18 -315 23 -319 7 -8 1010 -45 1035 -39 13 3 22
11 19 18 -7 23 -97 82 -224 149 -286 148 -580 238 -780 238 l-73 0 0 -47z"/>
<path d="M8602 8140 c-32 -20 -62 -71 -62 -106 0 -30 30 -80 59 -97 16 -9 48
-17 71 -17 34 0 48 6 76 34 28 28 34 42 34 75 0 57 -24 100 -65 117 -47 19
-74 18 -113 -6z"/>
<path d="M11193 8140 c-34 -21 -63 -66 -63 -100 0 -69 55 -120 129 -120 117 0
154 173 47 224 -45 21 -74 20 -113 -4z"/>
<path d="M9990 6884 l0 -137 41 6 c23 3 49 13 57 21 34 34 31 207 -3 232 -10
8 -36 14 -57 14 l-38 0 0 -136z"/>
<path d="M8222 6465 c-38 -17 -56 -54 -42 -90 7 -17 17 -25 34 -25 39 0 56 25
56 81 0 54 -1 54 -48 34z"/>
<path d="M11563 6465 c-42 -18 -61 -55 -45 -90 13 -29 52 -34 76 -9 16 16 23
114 9 114 -5 -1 -23 -7 -40 -15z"/>
</g>
</svg>
